<svg width="397" height="397" viewBox="0 0 397 397" fill="none" xmlns="http://www.w3.org/2000/svg">
<path d="M206.607 48.896V41.12C206.607 40.784 206.571 40.544 206.499 40.4C206.451 40.256 206.307 40.136 206.067 40.04C205.635 39.824 204.963 39.656 204.051 39.536L203.583 39.5L203.835 38.312C205.611 38.504 207.015 38.6 208.047 38.6C209.079 38.6 210.483 38.504 212.259 38.312L212.511 39.5C210.927 39.692 210.051 39.968 209.883 40.328C209.835 40.472 209.811 40.712 209.811 41.048V59.552C209.811 59.888 209.835 60.128 209.883 60.272C209.955 60.392 210.099 60.512 210.315 60.632C210.675 60.776 211.275 60.92 212.115 61.064L212.511 61.1L212.259 62.288C210.483 62.096 209.079 62 208.047 62C207.015 62 205.611 62.096 203.835 62.288L203.583 61.1C205.383 60.884 206.355 60.584 206.499 60.2C206.571 60.056 206.607 59.816 206.607 59.48V50.804H193.395V59.48C193.395 59.816 193.419 60.056 193.467 60.2C193.539 60.344 193.683 60.464 193.899 60.56C194.355 60.776 195.039 60.944 195.951 61.064L196.419 61.1L196.167 62.288C194.391 62.096 192.987 62 191.955 62C190.923 62 189.519 62.096 187.743 62.288L187.491 61.1C189.075 60.908 189.939 60.632 190.083 60.272C190.155 60.128 190.191 59.888 190.191 59.552V41.048C190.191 40.712 190.155 40.484 190.083 40.364C190.035 40.22 189.891 40.088 189.651 39.968C189.315 39.824 188.715 39.68 187.851 39.536L187.491 39.5L187.743 38.312C189.519 38.504 190.923 38.6 191.955 38.6C192.987 38.6 194.391 38.504 196.167 38.312L196.419 39.5C195.243 39.644 194.439 39.812 194.007 40.004C193.599 40.172 193.395 40.52 193.395 41.048V48.896H206.607Z" fill="#EFEFEF"/>
<path d="M216.449 61.7762C217.88 61.9403 219.369 61.5918 220.917 60.7307L221.399 61.5832C219 63.3371 216.786 64.0978 214.76 63.8652C212.757 63.6354 211.179 62.7538 210.026 61.2204C208.9 59.6659 208.47 57.7323 208.735 55.4194C209.001 53.1066 209.882 51.2148 211.379 49.7439C212.88 48.2491 214.667 47.6208 216.741 47.8588C218.84 48.0995 220.326 48.9344 221.201 50.3635C222.078 51.7687 222.39 53.58 222.136 55.7974L211.968 55.3555C211.712 59.2639 213.206 61.4041 216.449 61.7762ZM216.394 49.3046C215.131 49.1596 214.142 49.5656 213.428 50.5225C212.717 51.4555 212.28 52.6373 212.115 54.0679L219.081 53.9975C219.412 51.1124 218.516 49.5481 216.394 49.3046Z" fill="#EFEFEF"/>
<path d="M231.918 63.9579C231.847 64.2618 231.822 64.4776 231.841 64.6054C231.884 64.7386 232.009 64.8908 232.216 65.062C232.605 65.3991 233.128 65.6932 233.784 65.9443L234.119 66.096L233.629 67.0908C231.685 66.4418 230.456 66.0574 229.942 65.9378C229.428 65.8183 228.19 65.6291 226.23 65.3704L226.194 64.2532C227.139 64.3249 227.793 64.317 228.159 64.2295C228.553 64.124 228.787 64.0183 228.861 63.9123C228.958 63.8117 229.042 63.6095 229.113 63.3056L233.646 43.8098C233.804 43.1319 233.698 42.6883 233.327 42.479C233.011 42.3561 232.462 42.2778 231.682 42.2441L231.315 42.2327L231.392 41.105C233.418 40.763 235.284 40.7409 236.989 41.0388L237.333 41.7841C237.006 42.4474 236.767 43.1063 236.614 43.7608C236.462 44.4153 236.356 44.8712 236.296 45.1283L231.918 63.9579Z" fill="#EFEFEF"/>
<path d="M247.057 68.5957C246.953 68.8895 246.903 69.101 246.907 69.2302C246.935 69.3674 247.042 69.5328 247.227 69.7265C247.576 70.1058 248.062 70.4576 248.685 70.7819L249 70.9707L248.4 71.9032C246.543 71.0368 245.366 70.5149 244.869 70.3375C244.371 70.16 243.164 69.8311 241.246 69.3506L241.337 68.2366C242.267 68.4155 242.919 68.4823 243.292 68.437C243.695 68.3771 243.94 68.2988 244.025 68.2019C244.134 68.113 244.24 67.9217 244.345 67.6278L251.071 48.7759C251.305 48.1204 251.25 47.6675 250.906 47.4174C250.606 47.2593 250.07 47.119 249.298 46.9965L248.935 46.9434L249.14 45.8318C251.192 45.723 253.048 45.9137 254.708 46.404L254.965 47.1837C254.565 47.8054 254.252 48.4327 254.026 49.0656C253.8 49.6985 253.643 50.1393 253.554 50.3879L247.057 68.5957Z" fill="#EFEFEF"/>
<path d="M258.688 76.8016C256.599 75.7744 255.28 74.3503 254.731 72.5293C254.182 70.7083 254.437 68.7209 255.496 66.5672C256.565 64.3919 258.058 62.9061 259.974 62.1097C261.922 61.3024 263.93 61.4071 265.998 62.4236C268.087 63.4508 269.411 64.8909 269.971 66.7441C270.541 68.5757 270.297 70.5683 269.238 72.7221C268.19 74.8543 266.692 76.3241 264.744 77.1314C262.795 77.9387 260.777 77.8287 258.688 76.8016ZM258.673 67.367C257.678 69.3916 257.292 71.1276 257.516 72.5751C257.741 74.0226 258.531 75.0799 259.888 75.747C262.171 76.8695 264.223 75.5785 266.045 71.874C267.029 69.871 267.399 68.1405 267.153 66.6824C266.939 65.2134 266.154 64.1453 264.797 63.4782C262.536 62.3663 260.494 63.6626 258.673 67.367Z" fill="#EFEFEF"/>
<path d="M288.717 90.2479C288.003 91.1211 287.682 91.8355 287.755 92.391C287.828 92.9466 288.18 93.4826 288.812 93.9992C289.462 94.5309 290.459 94.8658 291.803 95.0039L291.697 95.9867C289.088 95.9925 287.273 95.5776 286.251 94.7421C284.282 93.1317 284.246 91.1653 286.145 88.8428L292.139 81.5133L290.522 80.1915L290.976 79.353L293.142 80.287L294.668 78.4198L297.741 79.2117L295.234 82.2773L299.007 84.9434L297.576 86.2382L294.323 83.3921L288.717 90.2479Z" fill="#EFEFEF"/>
<path d="M308.704 101.532L303.154 106.926C302.93 107.144 302.792 107.312 302.739 107.43C302.703 107.565 302.718 107.752 302.782 107.99C302.896 108.348 303.185 108.887 303.65 109.607L303.849 109.915L302.899 110.487C301.665 108.942 300.864 107.98 300.496 107.601C300.145 107.24 299.215 106.42 297.706 105.143L298.279 104.235C298.951 104.719 299.464 105.024 299.819 105.148C300.207 105.272 300.461 105.31 300.581 105.26C300.717 105.228 300.888 105.112 301.095 104.911L306.181 99.9686C307.179 98.9985 307.726 98.1152 307.823 97.3189C307.935 96.5398 307.565 95.7114 306.712 94.8336C305.859 93.9558 304.467 93.3843 302.536 93.1192L295.901 99.5672C295.678 99.7847 295.539 99.9524 295.487 100.07C295.468 100.189 295.499 100.376 295.581 100.632C295.726 101.126 296.04 101.725 296.522 102.427L295.598 102.974C294.364 101.429 293.563 100.467 293.195 100.089C292.844 99.7272 291.914 98.9078 290.405 97.6303L290.978 96.671C291.734 97.2419 292.289 97.5893 292.644 97.7131C293.032 97.8375 293.286 97.8751 293.406 97.8259C293.542 97.7939 293.722 97.6691 293.946 97.4517L308.3 83.5018C308.816 83 308.958 82.5777 308.725 82.235C308.459 81.8917 308.056 81.5295 307.519 81.1485L307.191 80.9147L307.84 80.0329C308.532 80.2974 309.358 80.7334 310.317 81.3412C311.309 81.9494 312.074 82.4949 312.61 82.9778L312.496 83.7909C311.863 84.1722 310.961 84.9315 309.791 86.0689L303.491 92.1908L305.168 92.4184C306.896 92.6468 308.287 93.3031 309.341 94.3874C310.395 95.4717 310.896 96.5906 310.846 97.744C310.812 98.9146 310.098 100.177 308.704 101.532Z" fill="#EFEFEF"/>
<path d="M309.303 115.819C310.182 116.96 311.47 117.785 313.166 118.295L312.891 119.235C309.961 118.736 307.873 117.679 306.627 116.064C305.396 114.467 304.929 112.722 305.225 110.826C305.555 108.935 306.642 107.279 308.485 105.857C310.329 104.436 312.3 103.749 314.398 103.798C316.516 103.832 318.212 104.676 319.487 106.329C320.777 108.002 321.214 109.65 320.799 111.273C320.403 112.882 319.321 114.368 317.553 115.731L310.784 108.131C307.803 110.672 307.309 113.235 309.303 115.819ZM318.208 107.088C317.431 106.081 316.451 105.655 315.268 105.81C314.103 105.95 312.951 106.46 311.81 107.339L316.715 112.285C319.015 110.512 319.513 108.78 318.208 107.088Z" fill="#EFEFEF"/>
<path d="M328.499 124.208C328.028 123.427 326.693 122.957 324.495 122.797L317.651 126.924C317.384 127.085 317.213 127.244 317.14 127.401C317.086 127.545 317.087 127.755 317.141 128.031C317.208 128.467 317.479 129.172 317.955 130.146L318.172 130.646L316.993 131.062C316.042 129.113 315.325 127.738 314.842 126.937C314.359 126.135 313.626 125.106 312.643 123.848L313.419 123.044C314.026 123.771 314.488 124.235 314.806 124.436C315.156 124.645 315.395 124.74 315.522 124.719C315.662 124.718 315.866 124.638 316.133 124.477L324.457 119.457C325.073 119.085 325.307 118.706 325.158 118.32C324.988 117.945 324.685 117.512 324.248 117.019L323.981 116.717L324.813 116.005C326.318 117.06 327.526 118.181 328.439 119.368L328.181 120.196C327.524 120.593 326.788 121.162 325.975 121.905L327.883 122.141C329.505 122.368 330.608 122.965 331.19 123.931C331.438 124.342 331.683 125.189 331.924 126.473C330.127 127.164 328.591 127.614 327.315 127.823L326.752 127.028C327.492 126.581 328.03 126.103 328.366 125.592C328.715 125.101 328.759 124.64 328.499 124.208Z" fill="#EFEFEF"/>
<path d="M325.197 142.97C325.795 144.28 326.863 145.375 328.399 146.257L327.918 147.11C325.177 145.96 323.383 144.458 322.536 142.602C321.698 140.768 321.638 138.962 322.356 137.183C323.106 135.416 324.539 134.049 326.657 133.082C328.775 132.115 330.85 131.893 332.883 132.415C334.937 132.928 336.398 134.134 337.266 136.033C338.143 137.955 338.196 139.659 337.424 141.146C336.674 142.623 335.283 143.825 333.253 144.752L328.381 135.817C324.902 137.617 323.841 140.001 325.197 142.97ZM335.848 136.483C335.32 135.326 334.462 134.689 333.274 134.572C332.108 134.445 330.87 134.68 329.56 135.278L333.217 141.207C335.859 140.001 336.736 138.426 335.848 136.483Z" fill="#EFEFEF"/>
<path d="M347.324 169.633L352.847 170.424C353.461 170.556 354.118 170.533 354.894 170.376C356.305 170.09 356.861 169.206 356.568 167.76C356.26 166.242 355.369 165.652 353.923 165.945C353.287 166.073 352.674 166.308 352.089 166.684L347.324 169.633ZM345.086 166.927L348.534 162.555C349.498 161.331 349.835 160.272 349.663 159.425C349.427 158.26 347.787 157.601 346.729 157.815C345.494 158.066 344.941 159.867 344.973 161.293L345.086 166.927ZM346.315 172.996L348.39 178.159C348.845 179.499 350.127 180.929 351.362 180.679C352.42 180.464 353.674 179.219 353.445 178.089C353.273 177.243 352.311 176.299 351.194 175.681L346.315 172.996ZM341.255 170.862C341.548 172.309 342.913 173.245 344.395 172.944C345.841 172.651 346.77 171.251 346.477 169.804C346.184 168.358 344.783 167.429 343.337 167.722C341.82 168.03 340.962 169.416 341.255 170.862ZM334.272 162.507C334.451 163.389 335.216 164.262 336.538 164.986L341.416 167.671L339.327 162.437C338.802 161.111 337.591 159.667 336.356 159.917C335.332 160.125 334.022 161.272 334.272 162.507ZM338.054 181.171C338.312 182.441 339.895 183.002 340.988 182.781C342.223 182.53 342.777 180.729 342.745 179.303L342.646 173.739L339.197 178.111C338.437 179.073 337.883 180.324 338.054 181.171ZM331.164 172.907C331.457 174.354 332.348 174.944 333.795 174.651C334.43 174.523 335.036 174.253 335.628 173.912L340.408 171.034L334.871 170.172C334.263 170.075 333.67 170.048 333.106 170.163C331.518 170.484 330.856 171.39 331.164 172.907Z" fill="#EFEFEF"/>
<path d="M338.111 196.747C337.751 196.736 337.474 196.777 337.279 196.867C337.085 196.958 336.935 197.169 336.829 197.502L336.24 200.475L334.952 200.186C335.192 198.512 335.327 197.147 335.357 196.092C335.387 195.036 335.331 193.618 335.19 191.837L336.385 191.619C336.477 192.582 336.602 193.27 336.758 193.683C336.938 194.12 337.315 194.347 337.891 194.363L356.388 194.892C356.963 194.908 357.329 194.727 357.484 194.347C357.661 194.016 357.81 193.444 357.929 192.631L358.012 192.237L359.192 192.523C358.944 193.644 358.804 194.781 358.771 195.932C358.738 197.084 358.815 198.155 359.003 199.144C358.029 199.621 356.857 200.331 355.485 201.277L342.74 209.952C342.129 210.343 341.411 210.659 340.588 210.899L340.152 211.031L340.291 211.215L355.801 211.658C356.352 211.674 356.718 211.48 356.898 211.077C357.101 210.699 357.263 210.055 357.385 209.146L357.47 208.68L358.723 208.968C358.455 210.785 358.31 212.054 358.29 212.773C358.269 213.517 358.341 214.78 358.506 216.561L357.311 216.779C357.218 215.84 357.081 215.152 356.902 214.715C356.746 214.278 356.393 214.052 355.841 214.036L341.806 213.635C339.887 213.58 337.918 213.596 335.899 213.682L334.889 213.726L334.426 211.011C336.466 210.229 338.808 208.916 341.454 207.07L353.543 198.664C354.13 198.273 354.789 197.919 355.518 197.604L355.919 197.436L355.78 197.251L338.111 196.747Z" fill="#EFEFEF"/>
<path d="M335.962 219.992C335.654 219.947 335.436 219.94 335.311 219.971C335.182 220.025 335.041 220.162 334.888 220.383C334.585 220.8 334.337 221.346 334.143 222.022L334.02 222.368L332.987 221.964C333.406 220.4 333.682 219.155 333.815 218.228C333.949 217.302 334.033 216.041 334.068 214.446L335.178 214.314C335.188 215.261 335.252 215.913 335.37 216.27C335.509 216.653 335.634 216.877 335.746 216.942C335.855 217.03 336.063 217.097 336.372 217.141L346.171 218.55C346.86 218.649 347.27 218.502 347.399 218.108C347.498 217.759 347.53 217.194 347.497 216.413L348.597 216.353C348.779 217.106 348.913 218.035 348.997 219.138C349.104 220.245 349.114 221.107 349.025 221.724L348.307 222.167C347.346 221.762 346.201 221.464 344.871 221.273L335.962 219.992ZM354.037 218.99C354.472 218.664 354.974 218.543 355.544 218.625C356.114 218.707 356.562 218.965 356.888 219.4C357.213 219.834 357.331 220.361 357.243 220.978C357.154 221.596 356.892 222.067 356.457 222.393C356.019 222.742 355.515 222.876 354.945 222.794C354.375 222.712 353.929 222.442 353.607 221.983C353.305 221.552 353.198 221.027 353.287 220.41C353.373 219.816 353.623 219.342 354.037 218.99Z" fill="#EFEFEF"/>
<path d="M338.713 240.539C338.939 240.623 339.214 240.708 339.539 240.794C340.932 241.16 341.917 241.282 342.495 241.161C343.101 240.65 343.574 239.745 343.916 238.445C344.551 236.031 342.93 234.315 339.053 233.296C337.057 232.771 335.418 232.824 334.135 233.455C332.853 234.085 332.029 235.097 331.663 236.49C331.297 237.882 331.406 239.4 331.992 241.043L331.01 241.38C329.696 238.827 329.265 236.691 329.716 234.973C330.259 232.907 331.386 231.404 333.097 230.465C334.803 229.548 336.781 229.385 339.032 229.977C341.307 230.575 343.057 231.705 344.283 233.367C345.526 235.059 345.867 236.972 345.305 239.108C345.116 239.828 344.71 240.713 344.086 241.765C343.485 242.823 342.978 243.62 342.564 244.157C342.088 243.982 341.333 243.598 340.299 243.003C339.281 242.438 338.579 241.993 338.193 241.668L338.713 240.539Z" fill="#EFEFEF"/>
<path d="M326.866 250.393C326.344 251.735 326.302 253.264 326.742 254.98L325.795 255.23C324.708 252.463 324.535 250.129 325.275 248.228C326.007 246.35 327.261 245.048 329.037 244.323C330.826 243.629 332.806 243.704 334.975 244.549C337.145 245.393 338.75 246.727 339.792 248.549C340.856 250.38 341.01 252.268 340.252 254.214C339.486 256.182 338.301 257.407 336.696 257.89C335.114 258.381 333.283 258.222 331.203 257.413L334.215 247.691C330.5 246.451 328.051 247.351 326.866 250.393ZM338.942 253.51C339.404 252.325 339.262 251.266 338.518 250.332C337.797 249.407 336.765 248.684 335.423 248.161L333.72 254.916C336.427 255.969 338.167 255.501 338.942 253.51Z" fill="#EFEFEF"/>
<path d="M314.629 278.832C313.698 278.195 312.959 277.937 312.412 278.057C311.865 278.177 311.361 278.574 310.9 279.248C310.426 279.941 310.178 280.963 310.155 282.314L309.167 282.293C308.938 279.694 309.196 277.85 309.941 276.76C311.377 274.66 313.333 274.457 315.809 276.15L323.625 281.494L324.803 279.771L325.678 280.15L324.932 282.388L326.923 283.75L326.397 286.879L323.128 284.644L320.795 288.63L319.383 287.316L321.94 283.831L314.629 278.832Z" fill="#EFEFEF"/>
<path d="M301.597 287.424C303.121 285.665 304.834 284.751 306.735 284.683C308.635 284.615 310.493 285.367 312.306 286.939C314.138 288.526 315.196 290.348 315.479 292.403C315.764 294.493 315.153 296.408 313.644 298.149C312.12 299.908 310.39 300.823 308.455 300.894C306.539 300.98 304.674 300.237 302.86 298.665C301.064 297.109 300.024 295.287 299.738 293.197C299.453 291.108 300.072 289.184 301.597 287.424ZM310.725 289.808C309.02 288.331 307.439 287.517 305.982 287.366C304.525 287.215 303.302 287.711 302.311 288.853C300.646 290.776 301.372 293.089 304.492 295.792C306.179 297.254 307.759 298.051 309.231 298.184C310.707 298.351 311.939 297.863 312.929 296.72C314.58 294.816 313.845 292.512 310.725 289.808Z" fill="#EFEFEF"/>
<path d="M289.689 320.411C287.825 321.765 286.122 321.83 284.581 320.607L283.982 322.6C283.496 324.258 282.66 325.517 281.476 326.378C280.292 327.238 279.161 327.541 278.085 327.284C277.003 327.061 275.884 326.154 274.728 324.562L270.178 318.3C269.995 318.047 269.848 317.887 269.739 317.818C269.61 317.763 269.423 317.751 269.178 317.781C268.846 317.814 268.281 318.017 267.484 318.389L267.15 318.542L266.719 317.52C268.424 316.519 269.49 315.863 269.917 315.552C270.325 315.256 271.269 314.452 272.748 313.14L273.565 313.836C272.99 314.433 272.616 314.897 272.443 315.231C272.264 315.598 272.191 315.844 272.223 315.969C272.235 316.108 272.326 316.295 272.495 316.528L276.663 322.265C277.51 323.43 278.284 324.128 278.986 324.36C279.669 324.606 280.467 324.397 281.379 323.734C282.272 323.085 283.027 321.735 283.644 319.685C283.295 319.286 283.022 318.951 282.824 318.679L278.275 312.417C278.091 312.165 277.945 312.004 277.836 311.935C277.707 311.881 277.52 311.868 277.275 311.898C276.784 311.958 276.157 312.176 275.392 312.554L274.961 311.532C276.666 310.53 277.703 309.896 278.072 309.628C278.422 309.374 279.336 308.591 280.815 307.279L281.633 307.975C280.667 308.973 280.213 309.674 280.269 310.079C280.281 310.218 280.379 310.414 280.562 310.666L284.731 316.404C285.577 317.569 286.352 318.267 287.054 318.499C287.737 318.744 288.563 318.514 289.534 317.809C290.486 317.118 291.23 315.835 291.767 313.962L286.329 306.477C286.146 306.224 285.999 306.063 285.89 305.995C285.775 305.959 285.586 305.964 285.321 306.008C284.811 306.081 284.174 306.307 283.41 306.684L283 305.691C284.705 304.69 285.771 304.034 286.198 303.724C286.606 303.428 287.549 302.623 289.029 301.311L289.896 302.016C289.224 302.682 288.801 303.182 288.628 303.516C288.449 303.883 288.376 304.129 288.408 304.254C288.42 304.394 288.518 304.59 288.701 304.842L294.415 312.706C294.838 313.288 295.236 313.489 295.608 313.307C295.966 313.106 296.372 312.767 296.826 312.289L297.104 311.998L297.885 312.765C296.943 314.369 295.949 315.655 294.902 316.623L294.056 316.437C293.689 315.933 293.197 315.459 292.579 315.018L292.086 316.667C291.614 318.345 290.815 319.593 289.689 320.411Z" fill="#EFEFEF"/>
<path d="M265.222 319.69C263.969 320.398 262.968 321.556 262.222 323.162L261.331 322.756C262.241 319.926 263.585 318.01 265.361 317.007C267.117 316.016 268.911 315.802 270.745 316.365C272.57 316.96 274.055 318.272 275.199 320.299C276.344 322.326 276.743 324.374 276.396 326.445C276.061 328.536 274.985 330.095 273.166 331.121C271.327 332.16 269.634 332.358 268.086 331.716C266.55 331.095 265.234 329.813 264.136 327.869L272.622 322.25C270.531 318.938 268.065 318.085 265.222 319.69ZM272.597 329.748C273.705 329.122 274.266 328.213 274.281 327.019C274.308 325.846 273.967 324.633 273.259 323.379L267.665 327.53C269.093 330.059 270.737 330.798 272.597 329.748Z" fill="#EFEFEF"/>
<path d="M250.994 326.457C249.667 327.018 248.542 328.054 247.617 329.565L246.778 329.06C248.005 326.352 249.558 324.602 251.437 323.808C253.294 323.023 255.102 323.015 256.859 323.783C258.604 324.583 259.93 326.055 260.836 328.199C261.742 330.344 261.905 332.424 261.325 334.442C260.753 336.481 259.506 337.907 257.583 338.72C255.637 339.542 253.932 339.546 252.468 338.732C251.013 337.939 249.851 336.515 248.982 334.46L258.053 329.844C256.353 326.316 254 325.187 250.994 326.457ZM257.174 337.29C258.346 336.795 259.007 335.955 259.158 334.771C259.318 333.609 259.118 332.365 258.557 331.038L252.527 334.525C253.657 337.2 255.206 338.121 257.174 337.29Z" fill="#EFEFEF"/>
<path d="M237.747 333.96C237.429 332.878 237.02 332.21 236.521 331.956C236.021 331.703 235.38 331.691 234.597 331.921C233.791 332.157 232.952 332.792 232.079 333.823L231.327 333.181C232.795 331.024 234.162 329.76 235.429 329.388C237.87 328.671 239.513 329.752 240.358 332.63L243.026 341.715L245.029 341.127L245.465 341.974L243.472 343.235L244.151 345.549L241.763 347.638L240.648 343.839L236.318 345.448L236.056 343.536L240.242 342.457L237.747 333.96Z" fill="#EFEFEF"/>
<path d="M211.264 325.669L211.696 325.644C212.299 326.523 212.749 327.663 213.045 329.065L212.417 329.425C211.728 329.152 211.108 329.031 210.557 329.063C209.407 329.129 208.548 329.875 207.981 331.302L206.66 334.695L213.138 347.089C213.46 347.671 213.709 348.03 213.885 348.164C214.062 348.322 214.415 348.398 214.944 348.392L215.223 349.494C213.68 349.414 212.489 349.398 211.65 349.446C210.788 349.495 209.595 349.647 208.071 349.903L208.083 348.856C208.843 348.693 209.387 348.541 209.716 348.402C210.046 348.287 210.202 348.074 210.184 347.763C210.176 347.619 210.13 347.453 210.047 347.266L205.78 338.856L205.549 337.967L205.334 337.98L205.144 339.072L202.246 347.676C202.161 347.873 202.123 348.043 202.131 348.187C202.149 348.499 202.353 348.703 202.743 348.801L204.379 349.032L204.51 350.07C203.304 349.995 202.294 349.981 201.479 350.027C200.664 350.074 199.662 350.203 198.472 350.416L198.66 349.287C199.186 349.233 199.528 349.117 199.686 348.94C199.846 348.787 200.028 348.404 200.233 347.791L206.808 329.71C207.742 327.132 209.228 325.785 211.264 325.669Z" fill="#EFEFEF"/>
<path d="M191.33 334.161C193.654 334.293 195.424 335.092 196.638 336.555C197.852 338.019 198.391 339.949 198.254 342.345C198.116 344.765 197.319 346.715 195.864 348.194C194.384 349.696 192.494 350.381 190.194 350.25C187.869 350.117 186.089 349.306 184.852 347.817C183.613 346.352 183.063 344.421 183.2 342.025C183.335 339.653 184.143 337.716 185.624 336.214C187.104 334.712 189.006 334.028 191.33 334.161ZM195.016 342.845C195.145 340.593 194.824 338.844 194.054 337.598C193.284 336.352 192.144 335.686 190.635 335.599C188.095 335.454 186.707 337.442 186.472 341.563C186.344 343.792 186.677 345.529 187.472 346.777C188.24 348.047 189.379 348.725 190.889 348.811C193.405 348.955 194.781 346.966 195.016 342.845Z" fill="#EFEFEF"/>
<path d="M168.855 334.875C168.961 334.261 168.851 333.84 168.525 333.613C168.195 333.409 167.829 333.273 167.427 333.203C167.025 333.134 166.642 333.092 166.279 333.078L166.215 331.971C167.904 331.922 169.357 331.759 170.574 331.483C171.547 332.479 171.953 333.439 171.793 334.361L173.236 333.624C174.82 332.778 176.321 332.477 177.74 332.723C180.743 333.243 181.936 335.288 181.318 338.859L180.072 346.06C179.941 346.817 180.07 347.265 180.46 347.406C180.806 347.515 181.286 347.561 181.897 347.545L182.264 347.535L182.257 348.63C180.76 348.98 178.976 349.085 176.905 348.946L176.519 348.222C176.807 347.541 177.091 346.397 177.369 344.788L178.357 339.077C178.591 337.729 178.514 336.693 178.128 335.969C177.714 335.264 176.952 334.815 175.84 334.623C174.729 334.431 173.344 334.763 171.685 335.621L170.175 344.347C170.044 345.104 170.161 345.551 170.528 345.687C170.945 345.808 171.495 345.867 172.178 345.863L172.58 345.86L172.609 346.961C170.929 347.376 169.063 347.467 167.008 347.234L166.587 346.503C166.875 345.822 167.158 344.678 167.437 343.07L168.855 334.875Z" fill="#EFEFEF"/>
<path d="M139.137 337.53L135.366 341.643C134.91 342.075 134.558 342.63 134.25 343.359C133.69 344.686 134.106 345.643 135.465 346.218C136.891 346.82 137.882 346.418 138.456 345.059C138.709 344.462 138.861 343.823 138.881 343.128L139.137 337.53ZM142.633 337.21L144.296 342.524C144.762 344.011 145.447 344.886 146.243 345.223C147.337 345.685 148.807 344.704 149.227 343.709C149.718 342.549 148.543 341.075 147.348 340.296L142.633 337.21ZM136.93 334.799L131.497 333.598C130.134 333.217 128.23 333.468 127.739 334.628C127.319 335.623 127.64 337.361 128.701 337.809C129.497 338.146 130.819 337.884 131.96 337.311L136.93 334.799ZM141.547 331.826C140.188 331.252 138.645 331.85 138.056 333.243C137.482 334.603 138.114 336.159 139.473 336.734C140.833 337.309 142.389 336.677 142.964 335.317C143.567 333.891 142.907 332.401 141.547 331.826ZM152.386 330.779C151.557 330.428 150.404 330.567 149.06 331.249L144.091 333.761L149.59 334.991C150.981 335.305 152.857 335.121 153.347 333.96C153.754 332.998 153.546 331.269 152.386 330.779ZM134.844 323.366C133.65 322.861 132.294 323.851 131.859 324.879C131.369 326.04 132.544 327.513 133.739 328.292L138.387 331.351L136.725 326.036C136.359 324.866 135.64 323.702 134.844 323.366ZM145.555 322.342C144.196 321.768 143.205 322.17 142.63 323.529C142.378 324.126 142.258 324.779 142.205 325.46L141.884 331.03L145.72 326.946C146.143 326.499 146.5 326.025 146.724 325.494C147.355 324.002 146.981 322.945 145.555 322.342Z" fill="#EFEFEF"/>
<path d="M119.66 318.071C120.56 316.589 120.967 315.15 120.884 313.754C120.781 312.344 120.108 311.188 118.865 310.285C117.603 309.368 116.404 308.956 115.268 309.051C114.112 309.131 113.16 309.685 112.413 310.714C111.707 311.685 111.508 312.816 111.816 314.108C112.113 315.332 112.794 317.028 113.859 319.196C113.963 319.42 114.143 319.847 114.397 320.477C114.637 321.126 114.798 321.599 114.879 321.896C114.927 322.197 115.003 322.623 115.108 323.174C115.198 323.744 115.212 324.214 115.151 324.585C114.984 325.59 114.639 326.453 114.117 327.171C112.932 328.802 111.445 329.665 109.656 329.759C107.833 329.859 106.048 329.274 104.301 328.004C103.66 327.539 102.125 326.038 99.6957 323.501C101.078 321.925 102.417 320.613 103.712 319.566L104.829 320.111C103.766 321.86 103.125 323.13 102.906 323.921C103.272 324.928 104.037 325.855 105.202 326.701C106.367 327.548 107.451 327.935 108.453 327.862C109.455 327.789 110.295 327.287 110.972 326.355C111.861 325.131 111.742 323.295 110.615 320.844C110.442 320.511 110.147 319.896 109.73 319C109.299 318.123 108.969 317.394 108.739 316.811C108.49 316.215 108.253 315.479 108.029 314.604C107.585 312.888 107.857 311.35 108.844 309.991C110.241 308.068 111.956 307.075 113.991 307.011C116.006 306.932 117.965 307.584 119.868 308.966C121.771 310.349 123.286 311.999 124.415 313.916C124.298 314.158 123.803 314.881 122.928 316.085C122.054 317.288 121.387 318.124 120.928 318.592L119.66 318.071Z" fill="#EFEFEF"/>
<path d="M96.6633 302.736C96.4833 302.896 96.2798 303.1 96.0526 303.348C95.0789 304.409 94.5108 305.223 94.3483 305.791C94.5173 306.565 95.097 307.406 96.0871 308.315C97.926 310.003 100.201 309.37 102.911 306.417C104.306 304.897 105.024 303.422 105.065 301.993C105.106 300.565 104.596 299.364 103.535 298.39C102.474 297.416 101.08 296.805 99.354 296.556L99.5139 295.53C102.386 295.56 104.476 296.175 105.784 297.376C107.358 298.821 108.161 300.519 108.194 302.471C108.209 304.407 107.43 306.232 105.855 307.947C104.265 309.68 102.449 310.701 100.407 311.009C98.3307 311.319 96.4793 310.727 94.8526 309.234C94.3044 308.731 93.7108 307.958 93.0716 306.915C92.4161 305.89 91.9478 305.07 91.6666 304.453C92.0427 304.114 92.7352 303.626 93.744 302.988C94.7189 302.352 95.4401 301.939 95.9076 301.749L96.6633 302.736Z" fill="#EFEFEF"/>
<path d="M83.964 294.108C84.5612 294.798 85.9565 295.034 88.1498 294.816L94.1898 289.583C94.4256 289.378 94.5664 289.193 94.6124 289.026C94.6402 288.875 94.604 288.668 94.5036 288.405C94.3634 287.987 93.976 287.338 93.3413 286.459L93.0421 286.004L94.1321 285.393C95.4015 287.151 96.3427 288.384 96.9556 289.091C97.5686 289.799 98.4663 290.688 99.6487 291.759L99.0211 292.684C98.2993 292.071 97.7649 291.693 97.4179 291.549C97.037 291.402 96.7855 291.35 96.6634 291.393C96.5256 291.417 96.3388 291.531 96.103 291.735L88.7571 298.101C88.2129 298.572 88.0473 298.986 88.26 299.341C88.4909 299.681 88.8639 300.056 89.379 300.468L89.6927 300.72L88.9944 301.563C87.3319 300.781 85.95 299.882 84.8486 298.868L84.9611 298.008C85.5415 297.505 86.1691 296.818 86.8439 295.948L84.9232 296.04C83.2861 296.093 82.0982 295.693 81.3595 294.841C81.0452 294.478 80.6595 293.685 80.2026 292.461C81.8555 291.474 83.2926 290.768 84.5139 290.345L85.2048 291.033C84.5518 291.598 84.1032 292.162 83.8589 292.723C83.5989 293.266 83.6339 293.728 83.964 294.108Z" fill="#EFEFEF"/>
<path d="M86.9854 275.379C88.2994 277.301 88.7477 279.19 88.3301 281.045C87.9126 282.901 86.7133 284.506 84.7321 285.861C82.7312 287.229 80.7008 287.788 78.6409 287.54C76.5476 287.285 74.8508 286.206 73.5503 284.304C72.2363 282.383 71.7911 280.477 72.2149 278.589C72.6189 276.713 73.8115 275.098 75.7926 273.744C77.754 272.403 79.7812 271.859 81.8745 272.114C83.9677 272.369 85.6714 273.458 86.9854 275.379ZM82.359 283.602C84.2213 282.328 85.4106 281.006 85.9271 279.636C86.4435 278.265 86.275 276.955 85.4216 275.707C83.9856 273.607 81.5639 273.722 78.1563 276.052C76.3139 277.312 75.1412 278.637 74.6383 280.028C74.1021 281.412 74.2607 282.728 75.1141 283.977C76.5365 286.057 78.9515 285.932 82.359 283.602Z" fill="#EFEFEF"/>
<path d="M75.5373 261.939C75.8132 261.794 75.9931 261.672 76.0768 261.573C76.1493 261.453 76.1826 261.259 76.1768 260.991C76.1762 260.476 76.056 259.888 75.8161 259.228L75.7118 258.876L76.7846 258.595C77.5668 260.488 78.0811 261.669 78.3275 262.136C78.5739 262.603 79.2412 263.662 80.3294 265.313L79.5086 266.071C78.9445 265.311 78.5097 264.821 78.2043 264.602C77.8665 264.373 77.6333 264.266 77.5048 264.279C77.3651 264.272 77.1572 264.341 76.8813 264.486L59.1785 273.827C58.5629 274.152 58.2973 274.523 58.3815 274.94C58.4959 275.259 58.7959 275.725 59.2817 276.337L59.5134 276.622L58.6103 277.302C57.0251 275.995 55.7868 274.599 54.8955 273.116L55.2334 272.367C55.9486 272.18 56.6033 271.93 57.1977 271.616C57.792 271.302 58.2059 271.084 58.4394 270.961L75.5373 261.939Z" fill="#EFEFEF"/>
<path d="M69.128 247.46C69.4187 247.347 69.6113 247.246 69.7057 247.158C69.7914 247.048 69.8466 246.859 69.8714 246.591C69.9296 246.079 69.8772 245.482 69.7141 244.798L69.6506 244.437L70.7484 244.28C71.3096 246.25 71.686 247.482 71.8776 247.974C72.0692 248.466 72.6114 249.594 73.5043 251.358L72.6024 252.018C72.1286 251.198 71.7525 250.662 71.474 250.41C71.1645 250.144 70.9451 250.011 70.8159 250.01C70.6779 249.986 70.4636 250.031 70.1729 250.144L51.5207 257.406C50.8721 257.659 50.5659 257.997 50.6021 258.42C50.6793 258.751 50.9243 259.248 51.3371 259.911L51.5348 260.221L50.5602 260.793C49.1342 259.314 48.0631 257.786 47.3467 256.211L47.7677 255.506C48.4996 255.402 49.1786 255.227 49.8048 254.984C50.4311 254.74 50.8672 254.57 51.1132 254.474L69.128 247.46Z" fill="#EFEFEF"/>
<path d="M60.0003 211.532C60.618 211.443 60.9843 211.208 61.0994 210.828C61.1907 210.451 61.2073 210.061 61.1492 209.657C61.0912 209.253 61.0128 208.877 60.914 208.527L61.9472 208.124C62.478 209.624 63.0817 210.955 63.7581 212.119C63.2193 213.093 62.4902 213.756 61.5707 214.106C63.4696 215.846 64.5027 217.298 64.6701 218.462C64.9707 220.552 64.536 222.251 63.3663 223.559C62.1931 224.843 60.4068 225.658 58.0075 226.003C55.6081 226.348 53.5136 225.946 51.7239 224.797C49.9307 223.624 48.8651 221.862 48.5269 219.51C48.3562 218.322 48.4451 217.17 48.7936 216.053L41.275 217.134C40.5385 217.239 40.1654 217.511 40.1556 217.949C40.1662 218.36 40.3025 218.971 40.5646 219.782L40.6922 220.163L39.6488 220.495C39.2444 219.874 38.8278 219.001 38.3991 217.874C37.9467 216.751 37.6421 215.813 37.4853 215.06L38.0498 214.433C38.7864 214.497 39.9624 214.413 41.5778 214.18L60.0003 211.532ZM56.9101 222.923C58.9768 222.626 60.4646 222.012 61.3734 221.081C62.2584 220.154 62.6121 219.073 62.4345 217.837C62.2569 216.602 61.6059 215.447 60.4815 214.372L51.6087 215.648C51.0254 216.144 50.5932 216.764 50.3121 217.507C50.0311 218.251 49.9384 218.955 50.034 219.62C50.215 220.879 50.8845 221.826 52.0425 222.459C53.197 223.069 54.8196 223.224 56.9101 222.923Z" fill="#EFEFEF"/>
<path d="M63.2776 202.675C63.3441 205.003 62.7001 206.834 61.3457 208.169C59.9913 209.504 58.1146 210.206 55.7155 210.275C53.2925 210.344 51.2818 209.717 49.6834 208.394C48.0603 207.048 47.2158 205.223 47.15 202.92C47.0836 200.593 47.7392 198.75 49.1169 197.39C50.4707 196.03 52.347 195.317 54.7461 195.248C57.1211 195.18 59.1202 195.819 60.7433 197.166C62.3664 198.512 63.2112 200.348 63.2776 202.675ZM54.9403 207.091C57.1954 207.027 58.9107 206.558 60.0862 205.684C61.2618 204.81 61.8279 203.617 61.7848 202.106C61.7121 199.563 59.6126 198.35 55.4863 198.468C53.2552 198.532 51.5523 199.013 50.3774 199.911C49.1779 200.785 48.5997 201.978 48.6429 203.49C48.7149 206.009 50.814 207.209 54.9403 207.091Z" fill="#EFEFEF"/>
<path d="M46.9923 197.074C47.2952 195.51 47.4847 194.286 47.5607 193.401C47.6367 192.516 47.6588 191.278 47.6269 189.685L48.6609 189.846C48.6983 190.813 48.7624 191.469 48.8533 191.814C48.9201 192.157 49.0732 192.339 49.3123 192.359C49.5514 192.38 49.7577 192.361 49.9313 192.304L58.6252 189.943L59.5731 189.844L59.6603 189.671L58.6417 189.33L48.3001 184.793L48.4479 183.071L59.4088 180.399L60.3926 180.303L60.4828 180.094L59.3628 179.673L51.3361 175.948C51.1748 175.862 51.0225 175.813 50.879 175.8C50.5443 175.772 50.3007 175.944 50.1482 176.316L49.6652 178.153L48.6189 178.136C48.8651 176.952 49.0241 175.942 49.096 175.105C49.1679 174.268 49.1834 173.246 49.1426 172.038L50.236 172.349C50.2127 172.901 50.2765 173.28 50.4275 173.485C50.5784 173.691 50.9316 173.926 51.487 174.191L64.0522 180.184L63.9075 181.87L53.1229 184.593L52.1749 184.692L52.0847 184.901L53.1033 185.241L63.2359 189.689L63.088 191.411L49.6694 195.353C49.077 195.519 48.6879 195.702 48.5021 195.903C48.3182 196.08 48.1918 196.43 48.1227 196.954L46.9923 197.074Z" fill="#EFEFEF"/>
<path d="M62.4074 174.544C62.7132 174.606 62.9297 174.626 63.0568 174.602C63.1652 174.551 63.302 174.42 63.4673 174.208C63.7931 173.809 64.1099 173.212 64.4179 172.417L65.3911 172.872C64.8121 174.762 64.4701 175.966 64.3653 176.484C64.2652 176.978 64.1138 178.208 63.9112 180.175L62.7955 180.243C62.8402 179.297 62.8136 178.643 62.7157 178.28C62.599 177.889 62.4866 177.658 62.3786 177.587C62.2753 177.493 62.0707 177.415 61.7649 177.353L52.2385 175.422C51.5329 175.279 51.1042 175.401 50.9526 175.786C50.8246 176.177 50.755 176.701 50.7439 177.36L50.7359 177.763L49.6416 177.725C49.2508 175.907 49.1137 174.287 49.2303 172.866L49.9797 172.43C50.5913 172.554 51.2738 172.57 52.0271 172.478L51.2756 170.93C50.4887 169.374 50.2455 167.856 50.5457 166.374C50.846 164.892 51.4864 163.846 52.467 163.237C53.4523 162.604 54.8976 162.481 56.8029 162.867L64.3887 164.404C64.6945 164.466 64.911 164.485 65.0381 164.462C65.17 164.415 65.3162 164.298 65.4767 164.11C65.7081 163.814 65.9895 163.271 66.321 162.481L66.463 162.143L67.4715 162.604C66.8925 164.495 66.5506 165.699 66.4457 166.216C66.3456 166.71 66.1942 167.941 65.9916 169.908L64.9183 169.947C64.9393 169.119 64.9008 168.524 64.8028 168.161C64.6861 167.77 64.5738 167.539 64.4657 167.468C64.3624 167.374 64.1696 167.298 63.8873 167.241L56.9366 165.832C55.5723 165.556 54.5343 165.603 53.8227 165.973C53.1158 166.319 52.6408 167.092 52.3977 168.292C52.1546 169.492 52.4686 170.963 53.3397 172.707L62.4074 174.544Z" fill="#EFEFEF"/>
<path d="M61.8664 141.589C61.2115 141.29 60.7665 141.311 60.5316 141.652C60.3184 142.003 60.1318 142.499 59.9718 143.138L59.8728 143.528L58.8156 143.243C58.8068 141.471 59.05 139.841 59.5453 138.352L60.374 138.097L62.232 138.709L61.8187 136.581C61.5094 135.12 61.619 133.811 62.1474 132.654C62.965 130.864 64.1844 129.812 65.8057 129.497C67.4053 129.172 69.3075 129.513 71.5124 130.52C73.7174 131.527 75.258 133.035 76.1344 135.045C76.9889 137.044 76.9426 139.081 75.9955 141.155C75.487 142.269 74.7346 143.165 73.7383 143.845L79.8947 146.656C80.3749 146.875 80.7962 146.791 81.1584 146.402L82.6608 144.239L83.6218 144.994C82.6377 146.629 81.9662 147.84 81.6073 148.626C81.2584 149.39 80.8132 150.624 80.2719 152.329L79.1699 152.143C79.4862 150.757 79.5214 149.929 79.2756 149.658C79.1963 149.543 79.0148 149.42 78.731 149.291L61.8664 141.589ZM74.7874 140.247C75.2959 139.134 75.2393 137.987 74.6177 136.806C73.9743 135.615 72.703 134.586 70.8036 133.718C67.0705 132.014 64.6257 132.427 63.4692 134.96C63.0205 135.942 63.0597 137.358 63.5868 139.209L71.315 142.738C72.0203 142.638 72.6981 142.367 73.3484 141.925C74.0087 141.462 74.4883 140.902 74.7874 140.247Z" fill="#EFEFEF"/>
<path d="M81.021 125.664C81.2882 125.825 81.4856 125.916 81.6131 125.937C81.7531 125.937 81.9364 125.866 82.1631 125.722C82.6041 125.456 83.0454 125.049 83.487 124.503L83.7346 124.232L84.5293 125.005C83.3114 126.653 82.5662 127.703 82.2935 128.155C82.0208 128.607 81.4586 129.725 80.6067 131.51L79.5332 131.199C79.8932 130.323 80.088 129.698 80.1177 129.323C80.1392 128.916 80.1109 128.661 80.0329 128.557C79.9674 128.434 79.801 128.291 79.5338 128.13L62.3931 117.794C61.7971 117.435 61.3424 117.399 61.0289 117.686C60.8143 117.949 60.5703 118.447 60.2971 119.179L60.1728 119.524L59.1242 119.102C59.425 117.069 59.9805 115.288 60.7907 113.759L61.6058 113.662C62.1357 114.178 62.6883 114.609 63.2638 114.956C63.8392 115.303 64.24 115.545 64.4661 115.681L81.021 125.664Z" fill="#EFEFEF"/>
<path d="M90.7616 112.974C91.6409 111.834 92.1116 110.378 92.1737 108.608L93.1526 108.635C93.4154 111.596 92.924 113.884 91.6783 115.499C90.4472 117.096 88.8775 117.992 86.9691 118.187C85.0563 118.349 83.1782 117.719 81.3347 116.297C79.4911 114.875 78.3262 113.144 77.8398 111.102C77.3345 109.045 77.7194 107.19 78.9944 105.537C80.2841 103.864 81.7667 103.022 83.4422 103.011C85.0987 102.985 86.8107 103.654 88.5782 105.017L82.9491 113.496C86.1642 115.733 88.7684 115.559 90.7616 112.974ZM80.0533 106.581C79.2766 107.588 79.1136 108.644 79.5645 109.75C79.9963 110.84 80.7824 111.825 81.9228 112.705L85.4594 106.703C83.1597 104.93 81.3577 104.889 80.0533 106.581Z" fill="#EFEFEF"/>
<path d="M96.4686 102.747C96.9506 103.216 97.5142 103.462 98.1595 103.487C98.8048 103.512 99.4118 103.231 99.9805 102.646C100.549 102.061 100.924 100.986 101.106 99.4224L98.1624 96.5622L96.5919 98.9013C95.4943 100.478 95.4532 101.76 96.4686 102.747ZM97.8977 92.289L103.164 97.4073C103.784 98.0094 104.42 97.9749 105.072 97.3036L105.724 96.5815L106.673 97.1026C106.043 98.1299 105.466 99.3092 104.942 100.641C103.893 100.859 102.923 100.703 102.033 100.173C101.934 101.583 101.763 102.655 101.519 103.388C101.308 104.121 100.969 104.728 100.501 105.21C99.6477 106.088 98.6866 106.526 97.6173 106.524C96.5647 106.505 95.5738 106.044 94.6444 105.141C93.6978 104.221 93.3269 103.208 93.5317 102.102C93.7193 100.979 94.33 99.7653 95.3636 98.4606L97.4137 95.8346L96.252 94.7056C95.2709 93.7521 94.3887 93.1792 93.6052 92.9867C92.8217 92.7942 92.0536 93.0853 91.301 93.8598C90.565 94.617 90.1163 95.2854 89.9548 95.8647C90.2159 96.3193 90.9574 97.1403 92.1794 98.3279L91.4355 99.7133C89.8111 98.8709 88.6382 98.1493 87.9167 97.5486C88.8799 94.8702 89.7629 93.118 90.5657 92.2918C91.8035 91.0182 93.0165 90.3899 94.2048 90.4069C95.3759 90.4071 96.6069 91.0345 97.8977 92.289Z" fill="#EFEFEF"/>
<path d="M111.84 92.7942C113.345 91.5636 113.566 90.2981 112.502 88.9975C112.031 88.4215 111.438 88.1318 110.722 88.1282C110.006 88.1246 109.106 88.256 108.022 88.5225C106.937 88.789 106.195 88.9619 105.795 89.0411C105.38 89.1018 104.917 89.1236 104.407 89.1066C103.353 89.0691 102.424 88.5581 101.619 87.5733C100.813 86.5886 100.539 85.4952 100.796 84.2929C101.057 83.0569 101.819 81.9224 103.082 80.8893C103.677 80.4032 104.975 79.6977 106.978 78.7729C107.794 79.9974 108.395 81.0555 108.783 81.9472L108.317 82.5145C106.489 81.1884 104.952 81.0342 103.707 82.0521C103.057 82.5839 102.694 83.1444 102.618 83.7337C102.56 84.3078 102.736 84.8457 103.147 85.3473C103.542 85.8304 104.028 86.0838 104.605 86.1076C105.168 86.1129 105.772 86.0371 106.419 85.8802C107.066 85.7233 107.625 85.5918 108.096 85.4856L108.96 85.2908C109.745 85.1137 110.247 85.0446 110.464 85.0835C110.686 85.0886 110.967 85.0912 111.308 85.0913C111.634 85.0729 111.885 85.1152 112.063 85.2182C112.243 85.2875 112.465 85.3695 112.729 85.4641C113.188 85.6466 113.63 85.998 114.056 86.5182C115.058 87.7444 115.391 89.0228 115.053 90.3534C114.714 91.6839 113.877 92.8961 112.539 93.99C111.22 95.0686 109.853 95.7673 108.44 96.0861C108.19 95.8563 107.761 95.3699 107.154 94.6267C106.531 93.8649 106.132 93.3388 105.956 93.0483L106.627 92.2202C107.475 92.9534 108.37 93.3842 109.312 93.5128C110.254 93.6414 111.097 93.4019 111.84 92.7942Z" fill="#EFEFEF"/>
<path d="M125.846 81.6053C127.058 80.8268 127.99 79.6142 128.643 77.9675L129.556 78.3224C128.809 81.1991 127.577 83.1889 125.861 84.2918C124.165 85.3818 122.385 85.698 120.522 85.2407C118.667 84.7501 117.109 83.5256 115.851 81.5672C114.592 79.6087 114.077 77.5862 114.305 75.4997C114.52 73.3929 115.506 71.7751 117.263 70.6462C119.039 69.5044 120.719 69.2097 122.3 69.7623C123.869 70.2946 125.257 71.4996 126.464 73.3773L118.313 79.4715C120.589 82.6587 123.1 83.37 125.846 81.6053ZM117.909 71.9852C116.839 72.6729 116.331 73.6131 116.384 74.8056C116.424 75.978 116.833 77.1699 117.612 78.3813L122.96 73.9175C121.39 71.4745 119.706 70.8304 117.909 71.9852Z" fill="#EFEFEF"/>
<path d="M149.088 55.9093L149.085 50.3299C149.129 49.7027 149.013 49.0561 148.747 48.3102C148.263 46.9539 147.309 46.5298 145.919 47.0258C144.461 47.5461 144.003 48.5121 144.499 49.9023C144.717 50.5126 145.036 51.0866 145.491 51.6123L149.088 55.9093ZM146.729 58.5094L141.911 55.7183C140.562 54.9381 139.465 54.7561 138.652 55.0465C137.533 55.4457 137.113 57.1625 137.476 58.1797C137.9 59.3664 139.762 59.6576 141.169 59.4231L146.729 58.5094ZM152.561 56.4286L157.376 53.6404C158.638 52.999 159.871 51.5271 159.447 50.3403C159.084 49.3231 157.673 48.2596 156.588 48.6467C155.774 48.9371 154.977 50.0242 154.524 51.2179L152.561 56.4286ZM151.169 61.7412C152.559 61.2452 153.291 59.761 152.783 58.3369C152.287 56.9468 150.769 56.2271 149.379 56.7231C147.989 57.2191 147.269 58.7372 147.765 60.1274C148.285 61.5854 149.779 62.2372 151.169 61.7412ZM143.892 69.8418C144.74 69.5393 145.496 68.6581 146.024 67.2464L147.987 62.0357L143.104 64.8481C141.867 65.5573 140.609 66.9614 141.033 68.1482C141.384 69.1315 142.706 70.2652 143.892 69.8418ZM161.829 63.442C163.049 63.0065 163.379 61.3599 163.004 60.3088C162.581 59.1221 160.719 58.8309 159.312 59.0654L153.819 59.9549L158.637 62.7461C159.698 63.3615 161.015 63.7324 161.829 63.442ZM154.629 71.4385C156.019 70.9424 156.477 69.9764 155.981 68.5862C155.764 67.9759 155.41 67.414 154.989 66.8762L151.46 62.555L151.395 68.1586C151.385 68.7737 151.443 69.3646 151.637 69.9071C152.181 71.4329 153.171 71.9587 154.629 71.4385Z" fill="#EFEFEF"/>
</svg>
